<svg xmlns="http://www.w3.org/2000/svg" xmlns:xlink="http://www.w3.org/1999/xlink" width="343.924" height="96.155" viewBox="0 0 343.924 96.155"><defs><clipPath id="clip-path"><rect id="Rectangle_31" data-name="Rectangle 31" width="343.924" height="96.155" fill="none"></rect></clipPath></defs><g id="Group_3" data-name="Group 3" transform="translate(0 0)"><g id="Group_2" data-name="Group 2" transform="translate(0 0)"><g id="Group_1" data-name="Group 1" clip-path="url(#clip-path)"><path id="Path_16" data-name="Path 16" d="M106.965,79.368v33.7H102.69v-5.792a18.579,18.579,0,0,1-6.116,4.986,17.089,17.089,0,0,1-19.636-3.515,17.4,17.4,0,0,1-5.064-12.621,17.078,17.078,0,0,1,5.11-12.451A16.665,16.665,0,0,1,89.28,78.5a15.9,15.9,0,0,1,7.51,1.765,17.083,17.083,0,0,1,5.9,5.3V79.368ZM89.636,82.682a13.079,13.079,0,0,0-11.555,6.775,13.651,13.651,0,0,0,.016,13.611,13.288,13.288,0,0,0,4.9,5.059,12.812,12.812,0,0,0,6.605,1.809,13.54,13.54,0,0,0,6.744-1.794,12.556,12.556,0,0,0,4.9-4.857,13.861,13.861,0,0,0,1.717-6.9,13.414,13.414,0,0,0-3.851-9.776,12.759,12.759,0,0,0-9.482-3.929" transform="translate(-16.276 -17.777)" fill="#fff"></path><path id="Path_17" data-name="Path 17" d="M161.339,79.368v33.7h-4.275v-5.792a18.579,18.579,0,0,1-6.116,4.986,17.089,17.089,0,0,1-19.636-3.515,17.4,17.4,0,0,1-5.064-12.621,17.078,17.078,0,0,1,5.11-12.451,16.665,16.665,0,0,1,12.3-5.172,15.9,15.9,0,0,1,7.51,1.765,17.083,17.083,0,0,1,5.9,5.3V79.368ZM144.01,82.682a13.079,13.079,0,0,0-11.555,6.775,13.651,13.651,0,0,0,.016,13.611,13.288,13.288,0,0,0,4.9,5.059,12.812,12.812,0,0,0,6.605,1.809,13.54,13.54,0,0,0,6.744-1.794,12.556,12.556,0,0,0,4.9-4.857,13.861,13.861,0,0,0,1.717-6.9,13.414,13.414,0,0,0-3.851-9.776,12.759,12.759,0,0,0-9.482-3.929" transform="translate(-28.59 -17.777)" fill="#fff"></path><path id="Path_18" data-name="Path 18" d="M185.737,63.446h4.336V75.958h6.876v3.748h-6.876v29.949h-4.336V79.706h-5.915V75.958h5.915Z" transform="translate(-40.722 -14.368)" fill="#fff"></path><path id="Path_19" data-name="Path 19" d="M209.693,64.286H235.8v4.46H214.246V83.025h21.371v4.459H214.246v17.9h21.371v4.459H209.693Z" transform="translate(-47.486 -14.558)" fill="#fff"></path><path id="Path_20" data-name="Path 20" d="M246.93,79.621h4.615l11.311,24.564,11.175-24.564h4.646l-15.424,33.7h-.805Z" transform="translate(-55.919 -18.031)" fill="#fff"></path><path id="Path_21" data-name="Path 21" d="M322.749,101.883,326.4,103.8a19.927,19.927,0,0,1-4.155,5.7,16.493,16.493,0,0,1-5.3,3.3,18.492,18.492,0,0,1-6.665,1.131q-8.246,0-12.9-5.4a18.233,18.233,0,0,1-4.651-12.219,18.015,18.015,0,0,1,3.937-11.428,16.1,16.1,0,0,1,13.361-6.38A16.624,16.624,0,0,1,323.8,85.035a18.249,18.249,0,0,1,3.72,11.522H297.2a13.716,13.716,0,0,0,3.752,9.625,11.968,11.968,0,0,0,8.962,3.755,14.413,14.413,0,0,0,5.008-.895,13.169,13.169,0,0,0,4.139-2.376,20.2,20.2,0,0,0,3.691-4.783m0-9.074a14.384,14.384,0,0,0-2.528-5.544,11.958,11.958,0,0,0-4.388-3.345,13.443,13.443,0,0,0-5.736-1.27,12.357,12.357,0,0,0-8.529,3.19,14.416,14.416,0,0,0-3.938,6.969Z" transform="translate(-66.292 -17.777)" fill="#fff"></path><path id="Path_22" data-name="Path 22" d="M346.511,79.367h4.336v6.04a18.133,18.133,0,0,1,5.761-5.188,14.156,14.156,0,0,1,6.875-1.719,11.95,11.95,0,0,1,6.705,1.92,11.435,11.435,0,0,1,4.321,5.173q1.394,3.252,1.394,10.128v17.344h-4.336V96.99a39.591,39.591,0,0,0-.483-7.774,8.542,8.542,0,0,0-2.892-5.033,8.728,8.728,0,0,0-5.575-1.688,10.7,10.7,0,0,0-7.048,2.6,12.189,12.189,0,0,0-4.1,6.442,44.8,44.8,0,0,0-.62,9.168v12.358h-4.336Z" transform="translate(-78.469 -17.777)" fill="#fff"></path><path id="Path_23" data-name="Path 23" d="M398.033,63.446h4.336V75.958h6.876v3.748h-6.876v29.949h-4.336V79.706h-5.915V75.958h5.915Z" transform="translate(-88.797 -14.368)" fill="#fff"></path><path id="Path_24" data-name="Path 24" d="M438.674,83.053l-2.788,2.881q-3.479-3.377-6.8-3.377a5.137,5.137,0,0,0-3.617,1.394,4.3,4.3,0,0,0-1.507,3.252,4.821,4.821,0,0,0,1.241,3.128,17.447,17.447,0,0,0,5.214,3.562Q435.26,96.4,437,98.725a8.8,8.8,0,0,1,1.706,5.3,9.507,9.507,0,0,1-2.916,7.031,9.955,9.955,0,0,1-7.29,2.881,12.736,12.736,0,0,1-5.569-1.27,12.086,12.086,0,0,1-4.388-3.5l2.725-3.1q3.321,3.748,7.047,3.748a6.351,6.351,0,0,0,4.439-1.672,5.167,5.167,0,0,0,1.832-3.933,5.043,5.043,0,0,0-1.211-3.315q-1.211-1.424-5.463-3.592-4.564-2.353-6.208-4.646a8.751,8.751,0,0,1-1.645-5.234,8.512,8.512,0,0,1,2.621-6.381,9.136,9.136,0,0,1,6.624-2.54q4.653,0,9.369,4.553" transform="translate(-94.781 -17.777)" fill="#fff"></path><path id="Path_26" data-name="Path 26" d="M44.127,64.287,25.784,101.67,7.262,64.287h-.74L0,109.846H4.4l4.476-32.83,16.3,32.83h1.164L42.447,77.264l4.5,32.582h4.464L44.857,64.287Z" transform="translate(0 -14.558)" fill="#fff"></path><path id="Path_27" data-name="Path 27" d="M124.992,31.552,111.266,0,97.541,31.552,77.148,23.6,89.074,51.017h6.8l4.051-9.311.938-2.159L109,42.717l2.266.884,2.267-.884,8.131-3.17.939,2.159,4.05,9.311h6.806L145.385,23.6ZM94.207,39.216l-1.73,3.978-3.625-8.333,6.2,2.417ZM111.266,36.9,103.36,33.82l7.906-18.176,7.907,18.176Zm18.79,6.292-1.73-3.978-.843-1.938,6.2-2.417Z" transform="translate(-17.471)" fill="#b6803d"></path></g></g></g></svg>